<svg width="131" height="44" viewBox="0 0 131 44" fill="none" xmlns="http://www.w3.org/2000/svg">
<g clip-path="url(#clip0)">
<path d="M120.525 2.01937e-05H10.4342C10.0329 2.01937e-05 9.6364 2.01938e-05 9.23616 0.00220887C8.90113 0.00439755 8.56877 0.0107557 8.23052 0.016107C7.49569 0.0247542 6.76258 0.0894017 6.03758 0.209488C5.31359 0.332188 4.61228 0.563512 3.95737 0.895638C3.30326 1.23057 2.70558 1.66579 2.18602 2.18549C1.66373 2.70373 1.22836 3.30275 0.896646 3.95951C0.564022 4.61497 0.33338 5.31735 0.212685 6.04239C0.0908421 6.76652 0.0252775 7.499 0.0165792 8.23326C0.00642377 8.56878 0.00535132 8.90542 0 9.24099V34.5358C0.00535132 34.8756 0.00642377 35.2048 0.0165792 35.5447C0.0252801 36.2789 0.0908448 37.0114 0.212685 37.7354C0.333047 38.4609 0.563703 39.1637 0.896646 39.8194C1.2282 40.474 1.66364 41.0706 2.18602 41.586C2.70361 42.108 3.30168 42.5435 3.95737 42.8759C4.61227 43.2089 5.31351 43.4416 6.03758 43.5662C6.76271 43.6853 7.49574 43.75 8.23052 43.7597C8.56877 43.7671 8.90113 43.7714 9.23616 43.7714C9.63639 43.7736 10.0329 43.7736 10.4342 43.7736H120.525C120.918 43.7736 121.318 43.7736 121.711 43.7714C122.044 43.7714 122.386 43.7671 122.72 43.7597C123.453 43.7505 124.185 43.6858 124.909 43.5662C125.635 43.4407 126.339 43.2081 126.997 42.8759C127.652 42.5433 128.249 42.1078 128.767 41.586C129.288 41.0686 129.724 40.4725 130.06 39.8194C130.39 39.1632 130.619 38.4605 130.737 37.7354C130.859 37.0113 130.927 36.279 130.94 35.5447C130.944 35.2048 130.945 34.8756 130.945 34.5358C130.953 34.1382 130.953 33.7429 130.953 33.3388V10.4358C130.953 10.035 130.953 9.63747 130.945 9.24099C130.945 8.90542 130.944 8.56878 130.94 8.23321C130.927 7.49889 130.859 6.76657 130.737 6.04235C130.618 5.31772 130.39 4.6154 130.06 3.95947C129.384 2.64306 128.313 1.57152 126.997 0.895539C126.339 0.564226 125.635 0.332962 124.909 0.209389C124.185 0.0887741 123.453 0.0241041 122.72 0.0159538C122.386 0.0106134 122.044 0.00420057 121.711 0.00206661C121.318 -0.00012207 120.918 -0.00012207 120.525 -0.00012207V2.01937e-05Z" fill="#A6A6A6"/>
<path d="M9.24121 42.8159C8.90779 42.8159 8.58242 42.8116 8.25161 42.8042C7.56632 42.7953 6.88263 42.7356 6.20614 42.6257C5.57535 42.5171 4.96429 42.315 4.39311 42.0261C3.82716 41.7397 3.31097 41.364 2.86432 40.9136C2.41119 40.4685 2.03395 39.9523 1.74753 39.3854C1.45796 38.8148 1.25756 38.2032 1.15331 37.5718C1.04073 36.8935 0.979815 36.2075 0.971099 35.52C0.964161 35.2892 0.955078 34.5207 0.955078 34.5207V9.24088C0.955078 9.24088 0.964752 8.48424 0.971154 8.26195C0.979499 7.57545 1.04006 6.89058 1.1523 6.21327C1.25674 5.58022 1.4573 4.96684 1.74703 4.39437C2.03239 3.82785 2.40754 3.31123 2.85794 2.86454C3.30782 2.41361 3.82566 2.03604 4.39257 1.74561C4.96244 1.45767 5.57235 1.25701 6.20186 1.15036C6.88057 1.03935 7.56664 0.979341 8.25431 0.97082L9.24175 0.957458H121.705L122.705 0.971357C123.386 0.979454 124.066 1.03893 124.738 1.14929C125.374 1.25728 125.99 1.45934 126.567 1.74882C127.703 2.33412 128.627 3.26013 129.21 4.39704C129.495 4.96556 129.692 5.57393 129.795 6.20152C129.909 6.88439 129.973 7.57464 129.986 8.26677C129.989 8.57668 129.989 8.90958 129.989 9.24088C129.997 9.65126 129.997 10.0419 129.997 10.4357V33.3387C129.997 33.7363 129.997 34.1242 129.989 34.5154C129.989 34.8712 129.989 35.1972 129.984 35.5328C129.972 36.2125 129.909 36.8905 129.797 37.5611C129.695 38.197 129.496 38.8134 129.206 39.3887C128.918 39.9494 128.543 40.4612 128.095 40.9051C127.648 41.3579 127.131 41.7357 126.564 42.0241C125.989 42.3151 125.374 42.518 124.738 42.6257C124.062 42.7362 123.378 42.7959 122.693 42.8042C122.372 42.8116 122.037 42.8159 121.711 42.8159L120.524 42.8181L9.24121 42.8159Z" fill="black"/>
<path d="M27.1054 22.2158C27.1172 21.3024 27.3598 20.4068 27.8107 19.6124C28.2616 18.818 28.9061 18.1505 29.6843 17.6721C29.1899 16.966 28.5377 16.385 27.7796 15.9751C27.0214 15.5652 26.178 15.3378 25.3166 15.3108C23.4789 15.1179 21.6974 16.4104 20.761 16.4104C19.8064 16.4104 18.3646 15.33 16.812 15.3619C15.8078 15.3944 14.8291 15.6864 13.9712 16.2095C13.1134 16.7327 12.4057 17.4692 11.9171 18.3471C9.80069 22.0114 11.3794 27.3967 13.4068 30.3587C14.4211 31.8091 15.6066 33.4292 17.1577 33.3717C18.6757 33.3088 19.2426 32.4038 21.0748 32.4038C22.8901 32.4038 23.4219 33.3717 25.0046 33.3352C26.6334 33.3088 27.6596 31.8784 28.6384 30.4143C29.3672 29.3808 29.928 28.2386 30.3 27.03C29.3537 26.6298 28.5462 25.9598 27.9781 25.1037C27.41 24.2476 27.1065 23.2433 27.1054 22.2158Z" fill="white"/>
<path d="M24.1153 13.3634C25.0034 12.2973 25.4409 10.927 25.335 9.54346C23.9782 9.68596 22.7249 10.3344 21.8248 11.3596C21.3847 11.8605 21.0477 12.4431 20.8329 13.0743C20.6182 13.7055 20.5299 14.3728 20.5732 15.0381C21.2519 15.0451 21.9232 14.898 22.5368 14.6079C23.1503 14.3178 23.6901 13.8923 24.1153 13.3634Z" fill="white"/>
<path d="M46.2917 29.7003H41.1118L39.8678 33.3734H37.6738L42.5802 19.7839H44.8597L49.766 33.3734H47.5346L46.2917 29.7003ZM41.6483 28.0053H45.7542L43.7301 22.0442H43.6735L41.6483 28.0053Z" fill="white"/>
<path d="M60.3622 28.4193C60.3622 31.4982 58.7143 33.4764 56.2274 33.4764C55.5975 33.5093 54.971 33.3642 54.4197 33.0576C53.8683 32.7511 53.4145 32.2954 53.1101 31.7429H53.063V36.6504H51.0293V23.4649H52.9979V25.1128H53.0353C53.3537 24.5629 53.8152 24.1097 54.3707 23.8012C54.9262 23.4928 55.555 23.3407 56.19 23.3612C58.7046 23.3612 60.3622 25.349 60.3622 28.4193ZM58.2718 28.4193C58.2718 26.4134 57.2352 25.0946 55.6535 25.0946C54.0997 25.0946 53.0545 26.4412 53.0545 28.4193C53.0545 30.4156 54.0997 31.7526 55.6535 31.7526C57.2352 31.7526 58.2718 30.4434 58.2718 28.4193Z" fill="white"/>
<path d="M71.2665 28.4193C71.2665 31.4982 69.6186 33.4763 67.1317 33.4763C66.5018 33.5093 65.8753 33.3642 65.3239 33.0576C64.7726 32.7511 64.3188 32.2954 64.0144 31.7429H63.9673V36.6503H61.9336V23.4649H63.9021V25.1128H63.9395C64.2579 24.5629 64.7194 24.1096 65.275 23.8012C65.8305 23.4928 66.4592 23.3407 67.0943 23.3612C69.609 23.3612 71.2665 25.349 71.2665 28.4193ZM69.1761 28.4193C69.1761 26.4134 68.1395 25.0946 66.5578 25.0946C65.004 25.0946 63.9588 26.4412 63.9588 28.4193C63.9588 30.4156 65.004 31.7526 66.5578 31.7526C68.1395 31.7526 69.1761 30.4434 69.1761 28.4193H69.1761Z" fill="white"/>
<path d="M78.4744 29.5868C78.6251 30.9344 79.9343 31.8192 81.7232 31.8192C83.4374 31.8192 84.6707 30.9344 84.6707 29.7193C84.6707 28.6645 83.9269 28.0329 82.1657 27.6L80.4045 27.1758C77.9091 26.573 76.7506 25.406 76.7506 23.5123C76.7506 21.1676 78.794 19.5571 81.6955 19.5571C84.567 19.5571 86.5355 21.1676 86.6018 23.5123H84.5488C84.4259 22.1561 83.3049 21.3375 81.6666 21.3375C80.0283 21.3375 78.9072 22.1658 78.9072 23.3712C78.9072 24.332 79.6232 24.8973 81.3748 25.3301L82.872 25.6977C85.6603 26.3571 86.8187 27.4771 86.8187 29.4649C86.8187 32.0073 84.7936 33.5996 81.5725 33.5996C78.5588 33.5996 76.524 32.0447 76.3926 29.5867L78.4744 29.5868Z" fill="white"/>
<path d="M91.2085 21.1205V23.4652H93.0926V25.0757H91.2085V30.5378C91.2085 31.3863 91.5858 31.7817 92.414 31.7817C92.6377 31.7778 92.861 31.7621 93.083 31.7347V33.3356C92.7106 33.4052 92.3321 33.4367 91.9534 33.4296C89.9475 33.4296 89.1652 32.6762 89.1652 30.7547V25.0757H87.7246V23.4652H89.1652V21.1205H91.2085Z" fill="white"/>
<path d="M94.1836 28.4201C94.1836 25.3028 96.0196 23.3439 98.8826 23.3439C101.755 23.3439 103.583 25.3027 103.583 28.4201C103.583 31.5461 101.765 33.4964 98.8826 33.4964C96.0014 33.4964 94.1836 31.5461 94.1836 28.4201ZM101.511 28.4201C101.511 26.2817 100.531 25.0196 98.8826 25.0196C97.2347 25.0196 96.2558 26.2913 96.2558 28.4201C96.2558 30.5671 97.2347 31.8197 98.8826 31.8197C100.531 31.8197 101.51 30.5671 101.51 28.4201H101.511Z" fill="white"/>
<path d="M105.258 23.4648H107.197V25.1512H107.245C107.376 24.6245 107.684 24.159 108.118 23.833C108.552 23.507 109.085 23.3404 109.628 23.3611C109.862 23.3603 110.096 23.3857 110.325 23.437V25.3392C110.029 25.2488 109.72 25.2073 109.411 25.2164C109.115 25.2044 108.821 25.2565 108.547 25.3691C108.274 25.4816 108.028 25.6521 107.827 25.8686C107.625 26.0852 107.473 26.3428 107.381 26.6236C107.289 26.9045 107.258 27.2021 107.292 27.4959V33.3726H105.258L105.258 23.4648Z" fill="white"/>
<path d="M119.703 30.4635C119.43 32.2621 117.678 33.4964 115.437 33.4964C112.555 33.4964 110.766 31.5653 110.766 28.4672C110.766 25.3594 112.564 23.3439 115.351 23.3439C118.093 23.3439 119.816 25.2269 119.816 28.231V28.9278H112.819V29.0507C112.786 29.4153 112.832 29.7826 112.953 30.1283C113.073 30.4739 113.266 30.7899 113.518 31.0554C113.77 31.3208 114.076 31.5296 114.415 31.6678C114.754 31.806 115.118 31.8705 115.484 31.857C115.964 31.9021 116.447 31.7908 116.859 31.5397C117.271 31.2886 117.591 30.9111 117.772 30.4635L119.703 30.4635ZM112.828 27.5064H117.782C117.8 27.1786 117.75 26.8505 117.636 26.5427C117.521 26.235 117.344 25.9542 117.116 25.7181C116.888 25.482 116.613 25.2956 116.31 25.1706C116.006 25.0456 115.68 24.9847 115.351 24.9918C115.02 24.9898 114.692 25.0534 114.385 25.179C114.079 25.3046 113.8 25.4896 113.566 25.7234C113.331 25.9572 113.145 26.2351 113.019 26.5411C112.892 26.8472 112.827 27.1752 112.828 27.5064V27.5064Z" fill="white"/>
<path d="M41.3938 9.55496C41.8201 9.52436 42.248 9.58877 42.6464 9.74355C43.0449 9.89832 43.404 10.1396 43.698 10.45C43.9919 10.7604 44.2133 11.1321 44.3461 11.5384C44.479 11.9447 44.52 12.3754 44.4662 12.7995C44.4662 14.8856 43.3388 16.0847 41.3938 16.0847H39.0352V9.55496H41.3938ZM40.0493 15.1613H41.2805C41.5851 15.1795 41.89 15.1295 42.173 15.015C42.4559 14.9005 42.7097 14.7244 42.916 14.4995C43.1223 14.2745 43.2758 14.0064 43.3654 13.7146C43.455 13.4228 43.4784 13.1148 43.4339 12.8128C43.4751 12.512 43.4494 12.2059 43.3584 11.9162C43.2675 11.6266 43.1136 11.3607 42.9077 11.1375C42.7019 10.9143 42.4493 10.7395 42.168 10.6254C41.8867 10.5113 41.5836 10.4609 41.2805 10.4777H40.0493V15.1613Z" fill="white"/>
<path d="M45.6126 13.6188C45.5816 13.295 45.6186 12.9682 45.7213 12.6596C45.824 12.3509 45.9901 12.0671 46.2089 11.8263C46.4277 11.5856 46.6944 11.3932 46.9919 11.2616C47.2894 11.13 47.6111 11.062 47.9364 11.062C48.2617 11.062 48.5835 11.13 48.881 11.2616C49.1785 11.3932 49.4452 11.5856 49.664 11.8263C49.8828 12.0671 50.0489 12.3509 50.1515 12.6596C50.2542 12.9682 50.2913 13.295 50.2603 13.6188C50.2919 13.943 50.2553 14.2702 50.1528 14.5793C50.0504 14.8885 49.8844 15.1728 49.6656 15.414C49.4467 15.6553 49.1798 15.848 48.882 15.9799C48.5842 16.1118 48.2621 16.18 47.9364 16.18C47.6107 16.18 47.2886 16.1118 46.9908 15.9799C46.693 15.848 46.4261 15.6553 46.2073 15.414C45.9884 15.1728 45.8224 14.8885 45.72 14.5793C45.6176 14.2702 45.581 13.943 45.6126 13.6188ZM49.26 13.6188C49.26 12.5506 48.7802 11.926 47.938 11.926C47.0927 11.926 46.6172 12.5506 46.6172 13.6188C46.6172 14.6955 47.0927 15.3154 47.938 15.3154C48.7802 15.3153 49.26 14.6912 49.26 13.6188H49.26Z" fill="white"/>
<path d="M56.4369 16.0853H55.4281L54.4096 12.456H54.3327L53.3185 16.0853H52.3192L50.9609 11.1575H51.9473L52.8301 14.9177H52.9028L53.9159 11.1575H54.8488L55.862 14.9177H55.9389L56.8174 11.1575H57.7899L56.4369 16.0853Z" fill="white"/>
<path d="M58.9336 11.1576H59.8698V11.9404H59.9424C60.0657 11.6592 60.2736 11.4236 60.5372 11.2662C60.8008 11.1088 61.107 11.0376 61.413 11.0625C61.6527 11.0444 61.8935 11.0806 62.1174 11.1682C62.3413 11.2559 62.5426 11.3928 62.7064 11.5688C62.8702 11.7448 62.9923 11.9555 63.0636 12.1851C63.135 12.4147 63.1538 12.6574 63.1186 12.8953V16.0853H62.1461V13.1395C62.1461 12.3476 61.802 11.9538 61.0827 11.9538C60.9199 11.9462 60.7574 11.9739 60.6063 12.035C60.4553 12.0961 60.3192 12.1891 60.2074 12.3077C60.0957 12.4263 60.0109 12.5677 59.9589 12.7222C59.9069 12.8766 59.8889 13.0405 59.9061 13.2025V16.0853H58.9336L58.9336 11.1576Z" fill="white"/>
<path d="M64.668 9.23352H65.6405V16.0849H64.668V9.23352Z" fill="white"/>
<path d="M66.9914 13.6188C66.9605 13.295 66.9975 12.9682 67.1003 12.6595C67.203 12.3508 67.3691 12.067 67.5879 11.8263C67.8067 11.5855 68.0735 11.3932 68.371 11.2616C68.6685 11.1299 68.9902 11.062 69.3156 11.062C69.6409 11.062 69.9626 11.1299 70.2602 11.2616C70.5577 11.3932 70.8244 11.5855 71.0432 11.8263C71.262 12.067 71.4281 12.3508 71.5309 12.6595C71.6336 12.9682 71.6706 13.295 71.6397 13.6188C71.6712 13.943 71.6346 14.2702 71.5321 14.5794C71.4297 14.8886 71.2637 15.1729 71.0448 15.4141C70.8259 15.6553 70.559 15.848 70.2612 15.9799C69.9634 16.1118 69.6413 16.18 69.3156 16.18C68.9899 16.18 68.6677 16.1118 68.3699 15.9799C68.0721 15.848 67.8052 15.6553 67.5863 15.4141C67.3675 15.1729 67.2015 14.8886 67.099 14.5794C66.9965 14.2702 66.9599 13.943 66.9914 13.6188ZM70.6389 13.6188C70.6389 12.5507 70.159 11.926 69.3169 11.926C68.4716 11.926 67.996 12.5507 67.996 13.6188C67.996 14.6955 68.4716 15.3154 69.3169 15.3154C70.159 15.3154 70.6389 14.6913 70.6389 13.6188H70.6389Z" fill="white"/>
<path d="M72.6641 14.6913C72.6641 13.8043 73.3245 13.2929 74.4968 13.2202L75.8316 13.1433V12.7179C75.8316 12.1975 75.4875 11.9036 74.8228 11.9036C74.2799 11.9036 73.9037 12.1029 73.7958 12.4513H72.8543C72.9537 11.6049 73.7499 11.062 74.8677 11.062C76.1031 11.062 76.7999 11.677 76.7999 12.7179V16.0849H75.8637V15.3923H75.7868C75.6306 15.6407 75.4113 15.8433 75.1512 15.9792C74.8912 16.1151 74.5997 16.1796 74.3066 16.166C74.0998 16.1876 73.8907 16.1655 73.6929 16.1013C73.4951 16.037 73.3129 15.932 73.1581 15.7931C73.0034 15.6541 72.8795 15.4843 72.7944 15.2945C72.7093 15.1048 72.6649 14.8993 72.6641 14.6913ZM75.8316 14.2702V13.8582L74.6283 13.9352C73.9497 13.9806 73.6419 14.2114 73.6419 14.6458C73.6419 15.0894 74.0266 15.3474 74.5557 15.3474C74.7107 15.3631 74.8673 15.3475 75.0161 15.3014C75.1649 15.2554 75.303 15.1798 75.422 15.0793C75.5411 14.9788 75.6387 14.8554 75.7091 14.7164C75.7794 14.5774 75.8211 14.4257 75.8316 14.2702Z" fill="white"/>
<path d="M78.0781 13.6189C78.0781 12.0618 78.8786 11.0754 80.1236 11.0754C80.4316 11.0612 80.7372 11.135 81.0048 11.2881C81.2724 11.4412 81.4909 11.6673 81.6347 11.94H81.7074V9.23352H82.6799V16.0849H81.748V15.3063H81.6711C81.5161 15.5772 81.29 15.8005 81.0172 15.952C80.7445 16.1036 80.4354 16.1776 80.1236 16.1661C78.87 16.1662 78.0781 15.1797 78.0781 13.6189ZM79.0827 13.6189C79.0827 14.6641 79.5754 15.293 80.3994 15.293C81.219 15.293 81.7256 14.655 81.7256 13.6232C81.7256 12.5962 81.2137 11.9491 80.3994 11.9491C79.5807 11.9491 79.0827 12.5823 79.0827 13.6189H79.0827Z" fill="white"/>
<path d="M86.7044 13.6188C86.6734 13.295 86.7104 12.9682 86.8131 12.6596C86.9158 12.3509 87.0819 12.0671 87.3007 11.8263C87.5195 11.5856 87.7862 11.3932 88.0837 11.2616C88.3812 11.13 88.7029 11.062 89.0282 11.062C89.3535 11.062 89.6752 11.13 89.9727 11.2616C90.2702 11.3932 90.5369 11.5856 90.7557 11.8263C90.9745 12.0671 91.1406 12.3509 91.2433 12.6596C91.346 12.9682 91.383 13.295 91.3521 13.6188C91.3836 13.943 91.347 14.2702 91.2446 14.5793C91.1422 14.8885 90.9762 15.1728 90.7574 15.414C90.5385 15.6553 90.2716 15.848 89.9738 15.9799C89.676 16.1118 89.3539 16.18 89.0282 16.18C88.7025 16.18 88.3804 16.1118 88.0826 15.9799C87.7848 15.848 87.5179 15.6553 87.2991 15.414C87.0802 15.1728 86.9142 14.8885 86.8118 14.5793C86.7094 14.2702 86.6728 13.943 86.7044 13.6188ZM90.3518 13.6188C90.3518 12.5506 89.8719 11.926 89.0298 11.926C88.1845 11.926 87.709 12.5506 87.709 13.6188C87.709 14.6955 88.1845 15.3154 89.0298 15.3154C89.8719 15.3153 90.3518 14.6912 90.3518 13.6188Z" fill="white"/>
<path d="M92.6562 11.1576H93.5924V11.9404H93.6651C93.7884 11.6592 93.9963 11.4236 94.2599 11.2662C94.5235 11.1088 94.8296 11.0376 95.1356 11.0625C95.3754 11.0444 95.6161 11.0806 95.84 11.1682C96.0639 11.2559 96.2652 11.3928 96.4291 11.5688C96.5929 11.7448 96.715 11.9555 96.7863 12.1851C96.8577 12.4147 96.8764 12.6574 96.8412 12.8953V16.0853H95.8687V13.1395C95.8687 12.3476 95.5246 11.9538 94.8054 11.9538C94.6426 11.9462 94.4801 11.9739 94.329 12.035C94.1779 12.0961 94.0418 12.1891 93.9301 12.3077C93.8183 12.4263 93.7335 12.5677 93.6815 12.7222C93.6295 12.8766 93.6115 13.0405 93.6288 13.2025V16.0853H92.6562V11.1576Z" fill="white"/>
<path d="M102.336 9.92987V11.1792H103.404V11.9983H102.336V14.5322C102.336 15.0484 102.549 15.2744 103.033 15.2744C103.157 15.274 103.28 15.2665 103.404 15.2519V16.062C103.229 16.0933 103.052 16.1099 102.875 16.1117C101.793 16.1117 101.362 15.7312 101.362 14.7812V11.9983H100.58V11.1791H101.362V9.92987H102.336Z" fill="white"/>
<path d="M104.732 9.23352H105.696V11.9491H105.773C105.903 11.6653 106.116 11.4283 106.385 11.2703C106.654 11.1123 106.965 11.0411 107.276 11.0663C107.514 11.0534 107.753 11.0932 107.974 11.183C108.196 11.2727 108.394 11.4103 108.556 11.5857C108.719 11.7612 108.84 11.9703 108.912 12.198C108.984 12.4258 109.005 12.6667 108.973 12.9034V16.0849H107.999V13.1433C107.999 12.3562 107.633 11.9576 106.946 11.9576C106.779 11.9439 106.61 11.9669 106.453 12.0249C106.296 12.083 106.153 12.1747 106.035 12.2937C105.917 12.4127 105.826 12.5561 105.769 12.7138C105.712 12.8716 105.69 13.0398 105.705 13.2069V16.0849H104.732L104.732 9.23352Z" fill="white"/>
<path d="M114.644 14.7544C114.511 15.2047 114.225 15.5943 113.835 15.8549C113.444 16.1155 112.975 16.2306 112.508 16.18C112.184 16.1886 111.861 16.1264 111.563 15.9978C111.265 15.8691 110.998 15.6772 110.781 15.4352C110.565 15.1932 110.403 14.9069 110.309 14.5963C110.214 14.2857 110.188 13.9582 110.232 13.6365C110.189 13.3138 110.215 12.9856 110.31 12.674C110.405 12.3625 110.565 12.075 110.781 11.8308C110.996 11.5867 111.261 11.3917 111.559 11.2591C111.856 11.1265 112.178 11.0593 112.504 11.062C113.875 11.062 114.702 11.9988 114.702 13.5462V13.8855H111.223V13.94C111.207 14.1209 111.23 14.3029 111.289 14.4744C111.349 14.646 111.443 14.8032 111.567 14.9361C111.69 15.069 111.84 15.1747 112.007 15.2462C112.174 15.3178 112.354 15.3537 112.535 15.3517C112.768 15.3796 113.003 15.3378 113.212 15.2314C113.421 15.125 113.593 14.9589 113.707 14.7543L114.644 14.7544ZM111.223 13.1663H113.712C113.724 13.0009 113.701 12.8348 113.646 12.6786C113.59 12.5224 113.502 12.3796 113.388 12.2594C113.274 12.1392 113.135 12.0442 112.982 11.9805C112.829 11.9169 112.664 11.8859 112.499 11.8897C112.33 11.8876 112.163 11.9192 112.008 11.9826C111.852 12.046 111.71 12.14 111.591 12.259C111.473 12.3779 111.379 12.5195 111.315 12.6753C111.252 12.8312 111.22 12.9981 111.223 13.1663H111.223Z" fill="white"/>
</g>
<defs>
<clipPath id="clip0">
<rect width="130.953" height="43.7736" fill="white"/>
</clipPath>
</defs>
</svg>
