<svg id="Layer_1" xmlns="http://www.w3.org/2000/svg" viewBox="0 0 1002.4 223.7">
  <style>
    .st0{fill:#42276d}
  </style>
  <path class="st0" d="M594 69.3v152h-44.1v-22.2c-4.8 8-11.1 14.1-18.9 18.3s-16.6 6.3-26.4 6.3c-19 0-33.2-5.3-42.6-15.9-9.4-10.6-14.1-26.6-14.1-48V69.3h45.3v91.4c0 18.4 7.9 27.6 23.7 27.6 9.4 0 17-3.2 22.8-9.6 5.8-6.4 8.7-14.8 8.7-25.2V69.3H594zM766.8 0v221.3h-44.7v-22.5c-4.6 7.8-11.1 13.9-19.5 18.3s-17.9 6.6-28.5 6.6c-13 0-24.6-3.3-34.8-10-10.2-6.7-18.1-16.1-23.8-28.2-5.7-12.1-8.5-25.9-8.5-41.5s2.8-29.3 8.5-41.2c5.7-11.9 13.6-21.1 23.7-27.6s21.7-9.7 34.9-9.7c10.2 0 19.5 2.2 27.9 6.4 8.4 4.3 14.9 10.2 19.5 17.8V0h45.3zm-53.7 177.7c6-7.7 9-18.7 9-33.1 0-14.2-3-25.1-9.1-32.8-6.1-7.7-14.6-11.5-25.6-11.5-11.2 0-19.9 3.8-26.1 11.4-6.2 7.6-9.3 18.4-9.3 32.4 0 14.4 3.1 25.5 9.3 33.4 6.2 7.9 14.9 11.8 26.1 11.8 11.2-.1 19.7-3.9 25.7-11.6zM939.7 69.3v152H895v-22.5c-4.6 7.8-11.1 13.9-19.5 18.3s-17.9 6.6-28.5 6.6c-13.2 0-24.8-3.2-34.9-9.6-10.1-6.4-18-15.5-23.7-27.4-5.7-11.9-8.5-25.6-8.5-41.2 0-15.6 2.8-29.5 8.5-41.7 5.7-12.2 13.6-21.6 23.8-28.3 10.2-6.7 21.8-10 34.8-10 10.6 0 20.1 2.3 28.5 6.9C883.9 77 890.4 83.2 895 91V69.3h44.7zM886 177.8c6-7.6 9-18.6 9-33 0-14.4-3-25.4-9-33.1-6-7.7-14.6-11.5-25.8-11.5-11.2 0-19.9 4-26.1 12-6.2 8-9.3 19.1-9.3 33.3 0 14.2 3 25 9.1 32.5s14.8 11.2 26.2 11.2c11.3 0 19.9-3.8 25.9-11.4zM438.8 223.5h-56.2l-60.4-68.9v68.9h-45.8V0h45.8v135.7l57.7-65.9h55l-65.3 73.8 69.2 79.9z"/>
  <g>
    <path class="st0" d="M150.7 223.5L62.8 122.3l48 101.2H77.5l-49-103.2 20.4 103.2H28.4L8 120.1v103.4H0V0h8v111.5L28.7 0h20.4L28.3 112l50-112h32.9L61.5 111.6 151.8 0h51.7L110 115.4l93.9 108.1z"/>
  </g>
  <circle class="st0" cx="977.6" cy="196.3" r="24.8"/>
</svg>